<?xml version="1.0" standalone="no"?>
<!DOCTYPE svg PUBLIC "-//W3C//DTD SVG 20010904//EN"
 "http://www.w3.org/TR/2001/REC-SVG-20010904/DTD/svg10.dtd">
<svg version="1.0" xmlns="http://www.w3.org/2000/svg"
 width="512.000000pt" height="512.000000pt" viewBox="0 0 512.000000 512.000000"
 preserveAspectRatio="xMidYMid meet">
<metadata>
Created by potrace 1.11, written by Peter Selinger 2001-2013
</metadata>
<g transform="translate(0.000000,512.000000) scale(0.100000,-0.100000)"
fill="#000000" stroke="none">
<path d="M2290 5104 c-209 -26 -247 -33 -400 -74 -609 -165 -1130 -542 -1473
-1068 -205 -313 -353 -713 -393 -1057 -3 -27 -8 -61 -11 -75 -2 -14 -6 -117
-8 -230 -2 -182 5 -299 29 -460 15 -99 74 -341 88 -357 6 -7 8 -13 4 -13 -3 0
4 -24 15 -52 12 -29 22 -57 24 -63 9 -38 85 -208 137 -305 201 -380 508 -712
879 -951 121 -78 338 -190 360 -185 3 0 13 -5 21 -12 36 -30 389 -140 503
-157 49 -7 92 -14 125 -20 153 -28 606 -28 751 0 13 3 41 7 64 10 50 7 283 63
310 74 11 5 38 14 60 21 207 63 482 203 680 345 201 145 403 341 548 535 31
41 61 80 66 86 35 42 223 377 226 404 1 3 11 28 24 55 72 160 155 459 177 640
3 22 7 51 10 65 3 14 7 131 9 260 4 275 -5 371 -61 630 -26 122 -109 360 -173
495 -33 69 -59 127 -58 129 1 2 -5 12 -14 22 -9 11 -31 46 -50 79 -173 309
-513 656 -843 859 -159 99 -339 182 -556 259 -66 24 -278 77 -330 83 -24 3
-47 7 -50 9 -4 2 -35 7 -71 10 -35 4 -71 9 -79 12 -33 12 -439 10 -540 -3z"/>
</g>
</svg>
